<svg width="auto" height="auto" viewBox="0 0 955 534" fill="none" xmlns="http://www.w3.org/2000/svg">
<path d="M447.5 59.0244C298.7 71.4244 147.167 266.858 90 363.024C191 416.691 425.9 518.724 557.5 497.524C689.1 476.324 845 292.358 906.5 203.024C815.5 149.858 596.3 46.6244 447.5 59.0244Z" stroke="url(#paint0_linear_592_164)" stroke-width="67"/>
<path d="M447.5 59.0244C298.7 71.4244 147.167 266.858 90 363.024C191 416.691 425.9 518.724 557.5 497.524C689.1 476.324 845 292.358 906.5 203.024C815.5 149.858 596.3 46.6244 447.5 59.0244Z" stroke="black" stroke-opacity="0.3" stroke-width="67"/>
<path d="M579.499 63.5C531.666 78.8333 434.199 126.5 426.999 194.5C419.799 262.5 507.666 180.5 552.499 131C577.166 200.5 591 366.9 449 476.5" stroke="url(#paint1_linear_592_164)" stroke-width="18"/>
<path d="M579.499 63.5C531.666 78.8333 434.199 126.5 426.999 194.5C419.799 262.5 507.666 180.5 552.499 131C577.166 200.5 591 366.9 449 476.5" stroke="black" stroke-opacity="0.3" stroke-width="18"/>
<path d="M518.057 72.0178C517.268 73.5081 516.02 74.0762 514.726 75.1247C512.12 77.2382 509.86 79.6746 507.365 81.8982C501.001 87.5703 494.222 93.2408 487.324 98.2162C477.409 105.368 467.863 113.026 459.559 121.924C456.912 124.759 454.03 127.873 451.665 130.964C450.679 132.254 449.023 133.656 448.419 135.107C448.021 136.061 444.944 138.537 445.172 137.682C447.134 130.324 452.697 123.456 457.179 117.529C464.373 108.018 470.898 98.0571 477.556 88.1679C481.582 82.1878 485.356 75.96 489.955 70.3944C491.677 68.3115 497.41 62.6818 495.162 64.1807C491.713 66.4795 488.814 70.8865 486.121 73.9771C479.121 82.0097 471.936 89.8766 464.933 97.9084C455.954 108.205 446.61 118.759 439.686 130.628C437.719 134.001 441.104 129.813 441.645 129.061C446.562 122.222 451.564 115.423 455.696 108.069C459.51 101.281 463.163 94.443 466.444 87.3842C467.214 85.7275 470.569 81.4419 470.111 79.3791C469.855 78.2278 462.458 87.3574 461.882 88.3079C455.776 98.3714 450.212 108.679 444.64 119.041C441.992 123.965 439.501 129.188 436.271 133.763C430.807 141.505 446.051 117.53 450.938 109.412C455.232 102.278 460.902 94.6711 463.757 86.7404C464.998 83.2926 459.556 92.7471 457.543 95.8091C451.223 105.423 446.001 115.665 440.246 125.618C432.325 139.316 426.095 153.145 420.961 168.107C417.468 178.282 412.479 210.262 413.879 199.595C414.917 191.69 417.194 183.946 418.554 176.084C419.695 169.486 420.814 162.739 422.556 156.267C423.509 152.729 420.856 162.965 420.821 163.124C418.404 174.086 416.676 185.152 415.559 196.32C414.622 205.687 413.767 215.248 413.767 224.674C413.767 226.757 414.063 230.432 415.671 231.839C415.876 232.019 415.783 231.823 415.783 231.475C415.783 229.451 415.783 227.426 415.783 225.402C415.783 223.11 415.004 216.273 415.307 218.544C415.947 223.342 419.798 228.21 422.584 231.979C426.09 236.723 429.981 240.888 434.144 245.051C436.537 247.444 438.768 250.038 441.197 252.384C441.937 253.098 445.109 256.24 445.004 254.175C444.378 241.871 432.843 223.206 418.917 223.694C411.142 223.967 404.887 230.148 406.546 238.221C409.276 251.506 424.091 261.776 437.223 261.956C438.668 261.976 440.769 262.306 441.869 261.145C443.581 259.338 442.28 254.357 441.673 252.44C439.567 245.79 433.195 243.393 426.895 246.058C419.552 249.164 440.267 260.974 442.653 262.068C450.245 265.551 458.242 267.875 466.612 266.379C472.028 265.41 473.48 263.185 472.994 257.87C472.498 252.45 471.037 243.652 464.821 241.58C460.625 240.181 453.245 240.069 451.05 244.827C449.486 248.215 452.428 251.427 455.528 252.412C462.788 254.718 471.036 250.13 475.905 244.995C481.197 239.412 488.773 219.876 476.688 217.621C469.874 216.348 455.62 216.301 452.785 224.954C452.025 227.273 451.394 234.409 455.192 234.246C462.026 233.954 469.428 230.068 475.093 226.549C477.412 225.109 479.099 223.383 480.999 221.483C481.438 221.044 483.017 220.088 483.21 219.412C483.544 218.244 474.794 218.461 474.505 218.488C468.258 219.08 462.389 222.695 459.503 228.369C455.013 237.193 461.06 246.236 469.915 248.129C480.641 250.423 493.669 248.256 494.574 235.226C494.728 233.005 494.931 227.502 492.754 225.906C490.965 224.593 487.238 226.289 485.813 227.305C475.288 234.806 486.034 248.62 496.449 248.857C502.463 248.994 508.288 244.12 511.62 239.565C517.105 232.065 518.799 222.425 519.737 213.394C520.092 209.971 520.819 205.207 516.434 204.297C509.289 202.815 502.092 203.357 496.029 207.628C491.81 210.601 481.99 222.242 490.571 226.297C504.588 232.92 515.886 218.691 519.681 206.817C520.111 205.47 521.859 201.656 520.8 200.295C518.975 197.949 509.274 203.849 507.925 204.773C501.234 209.357 496.717 215.04 493.594 222.435C491.858 226.546 489.03 231.801 488.836 236.374C488.801 237.183 488.444 238.725 489.62 238.725C492.098 238.725 491.355 240.555 491.355 243.035C491.355 249.067 489.311 255.082 486.093 260.193C485.679 260.851 484.864 262.145 484.805 262.964C484.684 264.662 485.639 259.662 486.149 258.038C489.266 248.106 493.861 239.239 498.52 229.992C503.683 219.746 509.014 209.563 514.027 199.259C517.93 191.235 517.355 181.536 521.444 173.509C522.196 172.033 524.537 167.542 526.286 166.959C526.875 166.763 525.589 167.989 525.279 168.527C524.033 170.685 522.717 172.762 521.36 174.852C517.621 180.611 513.999 186.36 510.08 192.01C509.146 193.358 506.236 196.827 507.813 196.376C509.791 195.811 512.779 191.441 513.971 189.911C519.618 182.658 524.046 174.57 529.813 167.351C533.775 162.392 537.53 157.195 541.625 152.348C541.958 151.954 544.563 149.104 544.647 150.165C544.969 154.19 542.176 158.64 540.729 162.257C538.471 167.901 535.776 173.214 533.004 178.631C531.43 181.704 528.863 184.779 527.714 188.035C527.509 188.615 526.516 190.105 527.014 189.743C530.425 187.262 533.016 182.604 535.299 179.219C539.507 172.978 542.912 166.399 546.271 159.682C546.741 158.742 546.378 159.382 546.047 159.906C544.079 163.013 542.446 166.316 540.673 169.534C534.119 181.427 527.049 192.659 522.032 205.361C520.134 210.167 518.396 215.12 516.854 220.056C515.128 225.578 524.86 211.625 528.078 206.817C533.494 198.722 537.497 189.516 541.513 180.674C541.785 180.074 546.586 171.325 546.663 171.605C547.006 172.864 546.772 174.725 546.747 175.944C546.636 181.193 546.258 186.423 545.739 191.646C544.83 200.793 542.928 209.914 542.324 219.076C542.201 220.94 542.24 222.808 542.24 224.674C542.24 226.169 542.597 221.705 542.8 220.224C543.872 212.417 545.971 204.596 546.243 196.712C546.29 195.352 546.524 189.786 546.047 194.501C544.726 207.56 544.217 220.791 543.864 233.911C543.714 239.452 544.256 256.08 544.256 250.537C544.256 245.008 544.18 239.473 544.759 233.967C545.352 228.334 546.562 222.87 547.726 217.341C548.328 214.481 548.787 214.375 549.294 217.565C550.904 227.706 550.301 238.283 550.301 248.521C550.301 254.749 551.093 235.944 553.1 230.048C553.622 228.515 553.677 229.037 553.828 230.664C554.426 237.092 555.056 243.413 554.752 249.893C554.431 256.747 552.558 262.719 550.525 269.178C550.379 269.642 548.518 277.61 547.782 275.447C546.944 272.982 547.254 269.863 547.167 267.33C546.979 261.904 546.711 256.472 546.887 251.04C547 247.534 547.157 243.511 548.286 240.124C548.572 239.266 548.28 241.935 548.258 242.839C548.13 248.101 547.95 253.366 547.754 258.626C547.387 268.49 546.551 278.424 545.039 288.183C544.73 290.181 544.466 296.798 544.004 291.066C543.372 283.229 544.182 275.406 544.983 267.61C545.31 264.434 546.161 261.226 546.271 258.038C546.366 255.28 545.815 263.543 545.375 266.267C544.078 274.308 543.981 282.858 541.513 290.674C539.249 297.842 536.765 305.008 533.899 311.946C532.183 316.102 530.553 320.651 528.413 324.625C526.58 328.03 526.236 332.12 524.355 335.485C523.258 337.449 522.808 339.67 521.584 341.559C520.23 343.648 518.473 345.478 516.882 347.381C513.046 351.967 509.184 356.859 504.454 360.592C500.505 363.71 497.437 367.629 494.63 371.788C490.392 378.066 489.483 386.348 488.08 393.676C486.878 399.957 485.622 406.224 483.294 412.205C481.044 417.984 478.683 423.757 476.996 429.727C475.861 433.743 472.813 436.936 472.714 441.203C472.659 443.574 473.991 443.873 476.129 442.77C484.532 438.437 492.14 430.752 498.24 423.625C500.393 421.111 502.407 417.829 503.614 414.724C504.03 413.655 499.458 416.155 498.94 416.376C495.437 417.868 492.377 419.938 489.116 421.862C485.942 423.734 484.901 425.719 483.294 428.999C482.174 431.286 482.029 432.711 479.711 433.757C477.211 434.886 483.002 429.367 484.693 427.208C490.168 420.219 495.035 412.661 499.92 405.264C504.117 398.908 509.64 393.029 513.131 386.175C519.24 374.183 521.369 360.57 528.134 348.921C529.586 346.419 531.323 343.925 532.556 341.335C533.242 339.895 533.234 338.032 533.787 336.521C535.013 333.174 536.33 329.844 537.706 326.557C540.577 319.699 543.752 297.654 543.752 305.089C543.752 307.745 542.153 310.927 541.345 313.402C538.892 320.914 534.783 328.141 530.373 334.674C520.715 348.979 509.814 362.626 498.156 375.343C490.023 384.215 481.347 392.428 473.498 401.513C465.712 410.524 456.89 418.926 447.915 426.704C442.311 431.561 438.127 437.225 431.709 441.259C429.836 442.436 425.909 444.841 423.592 444.841C413.406 444.841 443.781 442.104 453.905 440.979C457.542 440.575 468.48 439.803 464.821 439.803C462.302 439.803 459.779 439.757 457.263 439.915C447.8 440.511 437.645 443.159 428.462 445.569C425.418 446.368 422.595 447.173 419.701 448.368C419.342 448.516 415.779 449.924 417.35 448.648C420.564 446.037 424.167 443.971 427.65 441.763C432.563 438.647 436.891 434.657 441.757 431.434C443.924 429.999 446.694 426.441 449.202 425.724C453.518 424.491 440.475 428.131 436.523 430.259C428.95 434.337 421.766 440.812 413.32 443.106C412.738 443.264 407.975 444.779 409.905 444.002C415.812 441.621 421.548 438.697 427.314 435.997C430.698 434.412 434.313 432.215 438.09 431.77C440.018 431.543 436.285 435.316 434.816 436.584C429.084 441.534 422.383 445.831 415.503 448.984C415.092 449.172 409.331 452.066 410.996 451.531C420.85 448.364 431.859 445.849 442.261 445.849C444.87 445.849 442.395 445.901 441.253 446.129C438.543 446.671 435.179 447.719 432.8 449.096C431.828 449.659 431.316 449.902 432.744 449.88C437.21 449.81 441.649 449.376 446.124 449.376C446.989 449.376 451.296 449.376 447.803 449.376C441.212 449.376 434.275 448.759 427.762 449.88C425.642 450.244 423.343 450.308 426.671 451.391C430.558 452.657 434.712 453.568 438.79 453.882C441.291 454.074 442.62 455.784 444.78 456.401C447.509 457.181 450.772 459.956 453.569 459.956" stroke="url(#paint2_linear_592_164)" stroke-width="26" stroke-linecap="round"/>
<path d="M518.057 72.0178C517.268 73.5081 516.02 74.0762 514.726 75.1247C512.12 77.2382 509.86 79.6746 507.365 81.8982C501.001 87.5703 494.222 93.2408 487.324 98.2162C477.409 105.368 467.863 113.026 459.559 121.924C456.912 124.759 454.03 127.873 451.665 130.964C450.679 132.254 449.023 133.656 448.419 135.107C448.021 136.061 444.944 138.537 445.172 137.682C447.134 130.324 452.697 123.456 457.179 117.529C464.373 108.018 470.898 98.0571 477.556 88.1679C481.582 82.1878 485.356 75.96 489.955 70.3944C491.677 68.3115 497.41 62.6818 495.162 64.1807C491.713 66.4795 488.814 70.8865 486.121 73.9771C479.121 82.0097 471.936 89.8766 464.933 97.9084C455.954 108.205 446.61 118.759 439.686 130.628C437.719 134.001 441.104 129.813 441.645 129.061C446.562 122.222 451.564 115.423 455.696 108.069C459.51 101.281 463.163 94.443 466.444 87.3842C467.214 85.7275 470.569 81.4419 470.111 79.3791C469.855 78.2278 462.458 87.3574 461.882 88.3079C455.776 98.3714 450.212 108.679 444.64 119.041C441.992 123.965 439.501 129.188 436.271 133.763C430.807 141.505 446.051 117.53 450.938 109.412C455.232 102.278 460.902 94.6711 463.757 86.7404C464.998 83.2926 459.556 92.7471 457.543 95.8091C451.223 105.423 446.001 115.665 440.246 125.618C432.325 139.316 426.095 153.145 420.961 168.107C417.468 178.282 412.479 210.262 413.879 199.595C414.917 191.69 417.194 183.946 418.554 176.084C419.695 169.486 420.814 162.739 422.556 156.267C423.509 152.729 420.856 162.965 420.821 163.124C418.404 174.086 416.676 185.152 415.559 196.32C414.622 205.687 413.767 215.248 413.767 224.674C413.767 226.757 414.063 230.432 415.671 231.839C415.876 232.019 415.783 231.823 415.783 231.475C415.783 229.451 415.783 227.426 415.783 225.402C415.783 223.11 415.004 216.273 415.307 218.544C415.947 223.342 419.798 228.21 422.584 231.979C426.09 236.723 429.981 240.888 434.144 245.051C436.537 247.444 438.768 250.038 441.197 252.384C441.937 253.098 445.109 256.24 445.004 254.175C444.378 241.871 432.843 223.206 418.917 223.694C411.142 223.967 404.887 230.148 406.546 238.221C409.276 251.506 424.091 261.776 437.223 261.956C438.668 261.976 440.769 262.306 441.869 261.145C443.581 259.338 442.28 254.357 441.673 252.44C439.567 245.79 433.195 243.393 426.895 246.058C419.552 249.164 440.267 260.974 442.653 262.068C450.245 265.551 458.242 267.875 466.612 266.379C472.028 265.41 473.48 263.185 472.994 257.87C472.498 252.45 471.037 243.652 464.821 241.58C460.625 240.181 453.245 240.069 451.05 244.827C449.486 248.215 452.428 251.427 455.528 252.412C462.788 254.718 471.036 250.13 475.905 244.995C481.197 239.412 488.773 219.876 476.688 217.621C469.874 216.348 455.62 216.301 452.785 224.954C452.025 227.273 451.394 234.409 455.192 234.246C462.026 233.954 469.428 230.068 475.093 226.549C477.412 225.109 479.099 223.383 480.999 221.483C481.438 221.044 483.017 220.088 483.21 219.412C483.544 218.244 474.794 218.461 474.505 218.488C468.258 219.08 462.389 222.695 459.503 228.369C455.013 237.193 461.06 246.236 469.915 248.129C480.641 250.423 493.669 248.256 494.574 235.226C494.728 233.005 494.931 227.502 492.754 225.906C490.965 224.593 487.238 226.289 485.813 227.305C475.288 234.806 486.034 248.62 496.449 248.857C502.463 248.994 508.288 244.12 511.62 239.565C517.105 232.065 518.799 222.425 519.737 213.394C520.092 209.971 520.819 205.207 516.434 204.297C509.289 202.815 502.092 203.357 496.029 207.628C491.81 210.601 481.99 222.242 490.571 226.297C504.588 232.92 515.886 218.691 519.681 206.817C520.111 205.47 521.859 201.656 520.8 200.295C518.975 197.949 509.274 203.849 507.925 204.773C501.234 209.357 496.717 215.04 493.594 222.435C491.858 226.546 489.03 231.801 488.836 236.374C488.801 237.183 488.444 238.725 489.62 238.725C492.098 238.725 491.355 240.555 491.355 243.035C491.355 249.067 489.311 255.082 486.093 260.193C485.679 260.851 484.864 262.145 484.805 262.964C484.684 264.662 485.639 259.662 486.149 258.038C489.266 248.106 493.861 239.239 498.52 229.992C503.683 219.746 509.014 209.563 514.027 199.259C517.93 191.235 517.355 181.536 521.444 173.509C522.196 172.033 524.537 167.542 526.286 166.959C526.875 166.763 525.589 167.989 525.279 168.527C524.033 170.685 522.717 172.762 521.36 174.852C517.621 180.611 513.999 186.36 510.08 192.01C509.146 193.358 506.236 196.827 507.813 196.376C509.791 195.811 512.779 191.441 513.971 189.911C519.618 182.658 524.046 174.57 529.813 167.351C533.775 162.392 537.53 157.195 541.625 152.348C541.958 151.954 544.563 149.104 544.647 150.165C544.969 154.19 542.176 158.64 540.729 162.257C538.471 167.901 535.776 173.214 533.004 178.631C531.43 181.704 528.863 184.779 527.714 188.035C527.509 188.615 526.516 190.105 527.014 189.743C530.425 187.262 533.016 182.604 535.299 179.219C539.507 172.978 542.912 166.399 546.271 159.682C546.741 158.742 546.378 159.382 546.047 159.906C544.079 163.013 542.446 166.316 540.673 169.534C534.119 181.427 527.049 192.659 522.032 205.361C520.134 210.167 518.396 215.12 516.854 220.056C515.128 225.578 524.86 211.625 528.078 206.817C533.494 198.722 537.497 189.516 541.513 180.674C541.785 180.074 546.586 171.325 546.663 171.605C547.006 172.864 546.772 174.725 546.747 175.944C546.636 181.193 546.258 186.423 545.739 191.646C544.83 200.793 542.928 209.914 542.324 219.076C542.201 220.94 542.24 222.808 542.24 224.674C542.24 226.169 542.597 221.705 542.8 220.224C543.872 212.417 545.971 204.596 546.243 196.712C546.29 195.352 546.524 189.786 546.047 194.501C544.726 207.56 544.217 220.791 543.864 233.911C543.714 239.452 544.256 256.08 544.256 250.537C544.256 245.008 544.18 239.473 544.759 233.967C545.352 228.334 546.562 222.87 547.726 217.341C548.328 214.481 548.787 214.375 549.294 217.565C550.904 227.706 550.301 238.283 550.301 248.521C550.301 254.749 551.093 235.944 553.1 230.048C553.622 228.515 553.677 229.037 553.828 230.664C554.426 237.092 555.056 243.413 554.752 249.893C554.431 256.747 552.558 262.719 550.525 269.178C550.379 269.642 548.518 277.61 547.782 275.447C546.944 272.982 547.254 269.863 547.167 267.33C546.979 261.904 546.711 256.472 546.887 251.04C547 247.534 547.157 243.511 548.286 240.124C548.572 239.266 548.28 241.935 548.258 242.839C548.13 248.101 547.95 253.366 547.754 258.626C547.387 268.49 546.551 278.424 545.039 288.183C544.73 290.181 544.466 296.798 544.004 291.066C543.372 283.229 544.182 275.406 544.983 267.61C545.31 264.434 546.161 261.226 546.271 258.038C546.366 255.28 545.815 263.543 545.375 266.267C544.078 274.308 543.981 282.858 541.513 290.674C539.249 297.842 536.765 305.008 533.899 311.946C532.183 316.102 530.553 320.651 528.413 324.625C526.58 328.03 526.236 332.12 524.355 335.485C523.258 337.449 522.808 339.67 521.584 341.559C520.23 343.648 518.473 345.478 516.882 347.381C513.046 351.967 509.184 356.859 504.454 360.592C500.505 363.71 497.437 367.629 494.63 371.788C490.392 378.066 489.483 386.348 488.08 393.676C486.878 399.957 485.622 406.224 483.294 412.205C481.044 417.984 478.683 423.757 476.996 429.727C475.861 433.743 472.813 436.936 472.714 441.203C472.659 443.574 473.991 443.873 476.129 442.77C484.532 438.437 492.14 430.752 498.24 423.625C500.393 421.111 502.407 417.829 503.614 414.724C504.03 413.655 499.458 416.155 498.94 416.376C495.437 417.868 492.377 419.938 489.116 421.862C485.942 423.734 484.901 425.719 483.294 428.999C482.174 431.286 482.029 432.711 479.711 433.757C477.211 434.886 483.002 429.367 484.693 427.208C490.168 420.219 495.035 412.661 499.92 405.264C504.117 398.908 509.64 393.029 513.131 386.175C519.24 374.183 521.369 360.57 528.134 348.921C529.586 346.419 531.323 343.925 532.556 341.335C533.242 339.895 533.234 338.032 533.787 336.521C535.013 333.174 536.33 329.844 537.706 326.557C540.577 319.699 543.752 297.654 543.752 305.089C543.752 307.745 542.153 310.927 541.345 313.402C538.892 320.914 534.783 328.141 530.373 334.674C520.715 348.979 509.814 362.626 498.156 375.343C490.023 384.215 481.347 392.428 473.498 401.513C465.712 410.524 456.89 418.926 447.915 426.704C442.311 431.561 438.127 437.225 431.709 441.259C429.836 442.436 425.909 444.841 423.592 444.841C413.406 444.841 443.781 442.104 453.905 440.979C457.542 440.575 468.48 439.803 464.821 439.803C462.302 439.803 459.779 439.757 457.263 439.915C447.8 440.511 437.645 443.159 428.462 445.569C425.418 446.368 422.595 447.173 419.701 448.368C419.342 448.516 415.779 449.924 417.35 448.648C420.564 446.037 424.167 443.971 427.65 441.763C432.563 438.647 436.891 434.657 441.757 431.434C443.924 429.999 446.694 426.441 449.202 425.724C453.518 424.491 440.475 428.131 436.523 430.259C428.95 434.337 421.766 440.812 413.32 443.106C412.738 443.264 407.975 444.779 409.905 444.002C415.812 441.621 421.548 438.697 427.314 435.997C430.698 434.412 434.313 432.215 438.09 431.77C440.018 431.543 436.285 435.316 434.816 436.584C429.084 441.534 422.383 445.831 415.503 448.984C415.092 449.172 409.331 452.066 410.996 451.531C420.85 448.364 431.859 445.849 442.261 445.849C444.87 445.849 442.395 445.901 441.253 446.129C438.543 446.671 435.179 447.719 432.8 449.096C431.828 449.659 431.316 449.902 432.744 449.88C437.21 449.81 441.649 449.376 446.124 449.376C446.989 449.376 451.296 449.376 447.803 449.376C441.212 449.376 434.275 448.759 427.762 449.88C425.642 450.244 423.343 450.308 426.671 451.391C430.558 452.657 434.712 453.568 438.79 453.882C441.291 454.074 442.62 455.784 444.78 456.401C447.509 457.181 450.772 459.956 453.569 459.956" stroke="black" stroke-opacity="0.3" stroke-width="26" stroke-linecap="round"/>
<path d="M488.5 39C443.667 79.1667 364.1 176.9 404.5 246.5C444.9 316.1 502 268.167 525.5 235.5C536.833 293.167 513.6 416.3 330 447.5" stroke="url(#paint3_linear_592_164)" stroke-width="14"/>
<path d="M488.5 39C443.667 79.1667 364.1 176.9 404.5 246.5C444.9 316.1 502 268.167 525.5 235.5C536.833 293.167 513.6 416.3 330 447.5" stroke="black" stroke-opacity="0.3" stroke-width="14"/>
<path d="M488.5 39C443.667 79.1667 364.1 176.9 404.5 246.5C444.9 316.1 502 268.167 525.5 235.5C536.833 293.167 513.6 416.3 330 447.5" stroke="url(#paint4_linear_592_164)" stroke-width="18"/>
<path d="M488.5 39C443.667 79.1667 364.1 176.9 404.5 246.5C444.9 316.1 502 268.167 525.5 235.5C536.833 293.167 513.6 416.3 330 447.5" stroke="black" stroke-opacity="0.3" stroke-width="18"/>
<path d="M540.499 58.5C492.666 73.8333 395.199 121.5 387.999 189.5C380.799 257.5 468.666 175.5 513.499 126C538.166 195.5 552 361.9 410 471.5" stroke="url(#paint5_linear_592_164)" stroke-width="18"/>
<path d="M449.5 34C404.667 74.1667 325.1 171.9 365.5 241.5C405.9 311.1 463 263.167 486.5 230.5C497.833 288.167 474.6 411.3 291 442.5" stroke="url(#paint6_linear_592_164)" stroke-width="18"/>
<path d="M479.057 67.0178C478.268 68.5081 477.02 69.0762 475.726 70.1247C473.12 72.2382 470.86 74.6746 468.365 76.8982C462.001 82.5703 455.222 88.2408 448.324 93.2162C438.409 100.368 428.863 108.026 420.559 116.924C417.912 119.759 415.03 122.873 412.665 125.964C411.679 127.254 410.023 128.656 409.419 130.107C409.021 131.061 405.944 133.537 406.172 132.682C408.134 125.324 413.697 118.456 418.179 112.529C425.373 103.018 431.898 93.0571 438.556 83.1679C442.582 77.1878 446.356 70.96 450.955 65.3944C452.677 63.3115 458.41 57.6818 456.162 59.1807C452.713 61.4795 449.814 65.8865 447.121 68.9771C440.121 77.0097 432.936 84.8766 425.933 92.9084C416.954 103.205 407.61 113.759 400.686 125.628C398.719 129.001 402.104 124.813 402.645 124.061C407.562 117.222 412.564 110.423 416.696 103.069C420.51 96.2812 424.163 89.443 427.444 82.3842C428.214 80.7275 431.569 76.4419 431.111 74.3791C430.855 73.2278 423.458 82.3574 422.882 83.3079C416.776 93.3714 411.212 103.679 405.64 114.041C402.992 118.965 400.501 124.188 397.271 128.763C391.807 136.505 407.051 112.53 411.938 104.412C416.232 97.2779 421.902 89.6711 424.757 81.7404C425.998 78.2926 420.556 87.7471 418.543 90.8091C412.223 100.423 407.001 110.665 401.246 120.618C393.325 134.316 387.095 148.145 381.961 163.107C378.468 173.282 373.479 205.262 374.879 194.595C375.917 186.69 378.194 178.946 379.554 171.084C380.695 164.486 381.814 157.739 383.556 151.267C384.509 147.729 381.856 157.965 381.821 158.124C379.404 169.086 377.676 180.152 376.559 191.32C375.622 200.687 374.767 210.248 374.767 219.674C374.767 221.757 375.063 225.432 376.671 226.839C376.876 227.019 376.783 226.823 376.783 226.475C376.783 224.451 376.783 222.426 376.783 220.402C376.783 218.11 376.004 211.273 376.307 213.544C376.947 218.342 380.798 223.21 383.584 226.979C387.09 231.723 390.981 235.888 395.144 240.051C397.537 242.444 399.768 245.038 402.197 247.384C402.937 248.098 406.109 251.24 406.004 249.175C405.378 236.871 393.843 218.206 379.917 218.694C372.142 218.967 365.887 225.148 367.546 233.221C370.276 246.506 385.091 256.776 398.223 256.956C399.668 256.976 401.769 257.306 402.869 256.145C404.581 254.338 403.28 249.357 402.673 247.44C400.567 240.79 394.195 238.393 387.895 241.058C380.552 244.164 401.267 255.974 403.653 257.068C411.245 260.551 419.242 262.875 427.612 261.379C433.028 260.41 434.48 258.185 433.994 252.87C433.498 247.45 432.037 238.652 425.821 236.58C421.625 235.181 414.245 235.069 412.05 239.827C410.486 243.215 413.428 246.427 416.528 247.412C423.788 249.718 432.036 245.13 436.905 239.995C442.197 234.412 449.773 214.876 437.688 212.621C430.874 211.348 416.62 211.301 413.785 219.954C413.025 222.273 412.394 229.409 416.192 229.246C423.026 228.954 430.428 225.068 436.093 221.549C438.412 220.109 440.099 218.383 441.999 216.483C442.438 216.044 444.017 215.088 444.21 214.412C444.544 213.244 435.794 213.461 435.505 213.488C429.258 214.08 423.389 217.695 420.503 223.369C416.013 232.193 422.06 241.236 430.915 243.129C441.641 245.423 454.669 243.256 455.574 230.226C455.728 228.005 455.931 222.502 453.754 220.906C451.965 219.593 448.238 221.289 446.813 222.305C436.288 229.806 447.034 243.62 457.449 243.857C463.463 243.994 469.288 239.12 472.62 234.565C478.105 227.065 479.799 217.425 480.737 208.394C481.092 204.971 481.819 200.207 477.434 199.297C470.289 197.815 463.092 198.357 457.029 202.628C452.81 205.601 442.99 217.242 451.571 221.297C465.588 227.92 476.886 213.691 480.681 201.817C481.111 200.47 482.859 196.656 481.8 195.295C479.975 192.949 470.274 198.849 468.925 199.773C462.234 204.357 457.717 210.04 454.594 217.435C452.858 221.546 450.03 226.801 449.836 231.374C449.801 232.183 449.444 233.725 450.62 233.725C453.098 233.725 452.355 235.555 452.355 238.035C452.355 244.067 450.311 250.082 447.093 255.193C446.679 255.851 445.864 257.145 445.805 257.964C445.684 259.662 446.639 254.662 447.149 253.038C450.266 243.106 454.861 234.239 459.52 224.992C464.683 214.746 470.014 204.563 475.027 194.259C478.93 186.235 478.355 176.536 482.444 168.509C483.196 167.033 485.537 162.542 487.286 161.959C487.875 161.763 486.589 162.989 486.279 163.527C485.033 165.685 483.717 167.762 482.36 169.852C478.621 175.611 474.999 181.36 471.08 187.01C470.146 188.358 467.236 191.827 468.813 191.376C470.791 190.811 473.779 186.441 474.971 184.911C480.618 177.658 485.046 169.57 490.813 162.351C494.775 157.392 498.53 152.195 502.625 147.348C502.958 146.954 505.563 144.104 505.647 145.165C505.969 149.19 503.176 153.64 501.729 157.257C499.471 162.901 496.776 168.214 494.004 173.631C492.43 176.704 489.863 179.779 488.714 183.035C488.509 183.615 487.516 185.105 488.014 184.743C491.425 182.262 494.016 177.604 496.299 174.219C500.507 167.978 503.912 161.399 507.271 154.682C507.741 153.742 507.378 154.382 507.047 154.906C505.079 158.013 503.446 161.316 501.673 164.534C495.119 176.427 488.049 187.659 483.032 200.361C481.134 205.167 479.396 210.12 477.854 215.056C476.128 220.578 485.86 206.625 489.078 201.817C494.494 193.722 498.497 184.516 502.513 175.674C502.785 175.074 507.586 166.325 507.663 166.605C508.006 167.864 507.772 169.725 507.747 170.944C507.636 176.193 507.258 181.423 506.739 186.646C505.83 195.793 503.928 204.914 503.324 214.076C503.201 215.94 503.24 217.808 503.24 219.674C503.24 221.169 503.597 216.705 503.8 215.224C504.872 207.417 506.971 199.596 507.243 191.712C507.29 190.352 507.524 184.786 507.047 189.501C505.726 202.56 505.217 215.791 504.864 228.911C504.714 234.452 505.256 251.08 505.256 245.537C505.256 240.008 505.18 234.473 505.759 228.967C506.352 223.334 507.562 217.87 508.726 212.341C509.328 209.481 509.787 209.375 510.294 212.565C511.904 222.706 511.301 233.283 511.301 243.521C511.301 249.749 512.093 230.944 514.1 225.048C514.622 223.515 514.677 224.037 514.828 225.664C515.426 232.092 516.056 238.413 515.752 244.893C515.431 251.747 513.558 257.719 511.525 264.178C511.379 264.642 509.518 272.61 508.782 270.447C507.944 267.982 508.254 264.863 508.167 262.33C507.979 256.904 507.711 251.472 507.887 246.04C508 242.534 508.157 238.511 509.286 235.124C509.572 234.266 509.28 236.935 509.258 237.839C509.13 243.101 508.95 248.366 508.754 253.626C508.387 263.49 507.551 273.424 506.039 283.183C505.73 285.181 505.466 291.798 505.004 286.066C504.372 278.229 505.182 270.406 505.983 262.61C506.31 259.434 507.161 256.226 507.271 253.038C507.366 250.28 506.815 258.543 506.375 261.267C505.078 269.308 504.981 277.858 502.513 285.674C500.249 292.842 497.765 300.008 494.899 306.946C493.183 311.102 491.553 315.651 489.413 319.625C487.58 323.03 487.236 327.12 485.355 330.485C484.258 332.449 483.808 334.67 482.584 336.559C481.23 338.648 479.473 340.478 477.882 342.381C474.046 346.967 470.184 351.859 465.454 355.592C461.505 358.71 458.437 362.629 455.63 366.788C451.392 373.066 450.483 381.348 449.08 388.676C447.878 394.957 446.622 401.224 444.294 407.205C442.044 412.984 439.683 418.757 437.996 424.727C436.861 428.743 433.813 431.936 433.714 436.203C433.659 438.574 434.991 438.873 437.129 437.77C445.532 433.437 453.14 425.752 459.24 418.625C461.393 416.111 463.407 412.829 464.614 409.724C465.03 408.655 460.458 411.155 459.94 411.376C456.437 412.868 453.377 414.938 450.116 416.862C446.942 418.734 445.901 420.719 444.294 423.999C443.174 426.286 443.029 427.711 440.711 428.757C438.211 429.886 444.002 424.367 445.693 422.208C451.168 415.219 456.035 407.661 460.92 400.264C465.117 393.908 470.64 388.029 474.131 381.175C480.24 369.183 482.369 355.57 489.134 343.921C490.586 341.419 492.323 338.925 493.556 336.335C494.242 334.895 494.234 333.032 494.787 331.521C496.013 328.174 497.33 324.844 498.706 321.557C501.577 314.699 504.752 292.654 504.752 300.089C504.752 302.745 503.153 305.927 502.345 308.402C499.892 315.914 495.783 323.141 491.373 329.674C481.715 343.979 470.814 357.626 459.156 370.343C451.023 379.215 442.347 387.428 434.498 396.513C426.712 405.524 417.89 413.926 408.915 421.704C403.311 426.561 399.127 432.225 392.709 436.259C390.836 437.436 386.909 439.841 384.592 439.841C374.406 439.841 404.781 437.104 414.905 435.979C418.542 435.575 429.48 434.803 425.821 434.803C423.302 434.803 420.779 434.757 418.263 434.915C408.8 435.511 398.645 438.159 389.462 440.569C386.418 441.368 383.595 442.173 380.701 443.368C380.342 443.516 376.779 444.924 378.35 443.648C381.564 441.037 385.167 438.971 388.65 436.763C393.563 433.647 397.891 429.657 402.757 426.434C404.924 424.999 407.694 421.441 410.202 420.724C414.518 419.491 401.475 423.131 397.523 425.259C389.95 429.337 382.766 435.812 374.32 438.106C373.738 438.264 368.975 439.779 370.905 439.002C376.812 436.621 382.548 433.697 388.314 430.997C391.698 429.412 395.313 427.215 399.09 426.77C401.018 426.543 397.285 430.316 395.816 431.584C390.084 436.534 383.383 440.831 376.503 443.984C376.092 444.172 370.331 447.066 371.996 446.531C381.85 443.364 392.859 440.849 403.261 440.849C405.87 440.849 403.395 440.901 402.253 441.129C399.543 441.671 396.179 442.719 393.8 444.096C392.828 444.659 392.316 444.902 393.744 444.88C398.21 444.81 402.649 444.376 407.124 444.376C407.989 444.376 412.296 444.376 408.803 444.376C402.212 444.376 395.275 443.759 388.762 444.88C386.642 445.244 384.343 445.308 387.671 446.391C391.558 447.657 395.712 448.568 399.79 448.882C402.291 449.074 403.62 450.784 405.78 451.401C408.509 452.181 411.772 454.956 414.569 454.956" stroke="url(#paint7_linear_592_164)" stroke-width="26" stroke-linecap="round"/>
<path d="M449.5 34C404.667 74.1667 325.1 171.9 365.5 241.5C405.9 311.1 463 263.167 486.5 230.5C497.833 288.167 474.6 411.3 291 442.5" stroke="url(#paint8_linear_592_164)" stroke-width="14"/>
<path d="M404.5 35.0244C255.7 47.4244 104.167 242.858 47 339.024C148 392.691 382.9 494.724 514.5 473.524C646.1 452.324 802 268.358 863.5 179.024C772.5 125.858 553.3 22.6244 404.5 35.0244Z" stroke="url(#paint9_linear_592_164)" stroke-width="67"/>
<defs>
<linearGradient id="paint0_linear_592_164" x1="498.25" y1="58" x2="498.25" y2="500.38" gradientUnits="userSpaceOnUse">
<stop offset="0.49" stop-color="#D24D9C"/>
<stop offset="1" stop-color="#FFA65B"/>
</linearGradient>
<linearGradient id="paint1_linear_592_164" x1="503.04" y1="63.5" x2="503.04" y2="476.5" gradientUnits="userSpaceOnUse">
<stop offset="0.49" stop-color="#D24D9C"/>
<stop offset="1" stop-color="#FFA65B"/>
</linearGradient>
<linearGradient id="paint2_linear_592_164" x1="480.554" y1="63.9302" x2="480.554" y2="459.956" gradientUnits="userSpaceOnUse">
<stop offset="0.49" stop-color="#D24D9C"/>
<stop offset="1" stop-color="#FFA65B"/>
</linearGradient>
<linearGradient id="paint3_linear_592_164" x1="428.946" y1="39" x2="428.946" y2="447.5" gradientUnits="userSpaceOnUse">
<stop offset="0.49" stop-color="#D24D9C"/>
<stop offset="1" stop-color="#FFA65B"/>
</linearGradient>
<linearGradient id="paint4_linear_592_164" x1="428.946" y1="39" x2="428.946" y2="447.5" gradientUnits="userSpaceOnUse">
<stop offset="0.49" stop-color="#D24D9C"/>
<stop offset="1" stop-color="#FFA65B"/>
</linearGradient>
<linearGradient id="paint5_linear_592_164" x1="464.04" y1="58.5" x2="464.04" y2="471.5" gradientUnits="userSpaceOnUse">
<stop offset="0.49" stop-color="#D24D9C"/>
<stop offset="1" stop-color="#FFA65B"/>
</linearGradient>
<linearGradient id="paint6_linear_592_164" x1="389.946" y1="34" x2="389.946" y2="442.5" gradientUnits="userSpaceOnUse">
<stop offset="0.49" stop-color="#D24D9C"/>
<stop offset="1" stop-color="#FFA65B"/>
</linearGradient>
<linearGradient id="paint7_linear_592_164" x1="441.554" y1="58.9302" x2="441.554" y2="454.956" gradientUnits="userSpaceOnUse">
<stop offset="0.49" stop-color="#D24D9C"/>
<stop offset="1" stop-color="#FFA65B"/>
</linearGradient>
<linearGradient id="paint8_linear_592_164" x1="389.946" y1="34" x2="389.946" y2="442.5" gradientUnits="userSpaceOnUse">
<stop offset="0.49" stop-color="#D24D9C"/>
<stop offset="1" stop-color="#FFA65B"/>
</linearGradient>
<linearGradient id="paint9_linear_592_164" x1="455.25" y1="34" x2="455.25" y2="476.38" gradientUnits="userSpaceOnUse">
<stop offset="0.49" stop-color="#D24D9C"/>
<stop offset="1" stop-color="#FFA65B"/>
</linearGradient>
</defs>
</svg>
