<svg width="auto" height="auto" viewBox="0 0 910 1061" fill="none" xmlns="http://www.w3.org/2000/svg">
<path d="M1306.3 719.057C1263.36 512.284 1150.97 67.8634 1044.9 -55.6361C938.824 -179.136 568.367 -296.885 396.397 -340.323" stroke="#D24D9C" stroke-width="2"/>
<path d="M910.23 1059.9C867.293 853.13 754.901 408.709 648.827 285.209C542.753 161.71 172.295 43.9601 0.325918 0.522726" stroke="#FFA65B" stroke-width="2"/>
<path d="M1287.44 735.288C1244.5 528.515 1132.11 84.0937 1026.04 -39.4058C919.964 -162.905 549.506 -280.655 377.537 -324.092" stroke="#D45199" stroke-width="2"/>
<path d="M1268.58 751.518C1225.64 544.745 1113.25 100.324 1007.18 -23.1753C901.103 -146.675 530.646 -264.425 358.677 -307.862" stroke="#D65596" stroke-width="2"/>
<path d="M1249.72 767.749C1206.78 560.976 1094.39 116.556 988.316 -6.94389C882.242 -130.443 511.785 -248.193 339.815 -291.631" stroke="#D85A93" stroke-width="2"/>
<path d="M1230.86 783.979C1187.92 577.206 1075.53 132.786 969.457 9.28609C863.383 -114.213 492.925 -231.963 320.956 -275.401" stroke="#DB5E90" stroke-width="2"/>
<path d="M1212 800.211C1169.06 593.438 1056.67 149.017 950.595 25.5174C844.521 -97.9821 474.064 -215.732 302.094 -259.169" stroke="#DD628D" stroke-width="2"/>
<path d="M1193.14 816.441C1150.2 609.668 1037.81 165.247 931.735 41.7479C825.661 -81.7516 455.204 -199.501 283.234 -242.939" stroke="#DF6689" stroke-width="2"/>
<path d="M1174.28 832.673C1131.34 625.9 1018.95 181.479 912.874 57.9793C806.8 -65.5202 436.342 -183.27 264.373 -226.707" stroke="#E16B86" stroke-width="2"/>
<path d="M1155.42 848.903C1112.48 642.13 1000.09 197.709 894.014 74.2093C787.94 -49.2902 417.483 -167.04 245.513 -210.477" stroke="#E36F83" stroke-width="2"/>
<path d="M1136.56 865.134C1093.62 658.361 981.228 213.94 875.154 90.4402C769.08 -33.0593 398.622 -150.809 226.653 -194.246" stroke="#E57380" stroke-width="2"/>
<path d="M1117.7 881.364C1074.76 674.591 962.368 230.17 856.294 106.671C750.22 -16.8289 379.762 -134.579 207.793 -178.016" stroke="#E7777D" stroke-width="2"/>
<path d="M1098.84 897.595C1055.9 690.822 943.506 246.401 837.432 122.902C731.358 -0.597876 360.901 -118.348 188.931 -161.785" stroke="#EA7C7A" stroke-width="2"/>
<path d="M1079.98 913.825C1037.04 707.052 924.646 262.632 818.572 139.132C712.498 15.6325 342.04 -102.117 170.071 -145.555" stroke="#EC8077" stroke-width="2"/>
<path d="M1061.11 930.057C1018.18 723.284 905.785 278.863 799.711 155.363C693.637 31.8639 323.179 -85.8858 151.21 -129.323" stroke="#EE8474" stroke-width="2"/>
<path d="M1042.25 946.287C999.318 739.514 886.925 295.093 780.851 171.594C674.777 48.0943 304.32 -69.6554 132.35 -113.093" stroke="#F08871" stroke-width="2"/>
<path d="M1023.39 962.518C980.457 755.745 868.064 311.324 761.99 187.824C655.916 64.3249 285.458 -53.4249 113.489 -96.8623" stroke="#F28D6E" stroke-width="2"/>
<path d="M1004.53 978.749C961.596 771.976 849.204 327.555 743.13 204.055C637.055 80.5557 266.598 -37.194 94.6287 -80.6314" stroke="#F4916A" stroke-width="2"/>
<path d="M985.673 994.979C942.736 788.207 830.343 343.786 724.269 220.286C618.195 96.7866 247.738 -20.9631 75.7683 -64.4005" stroke="#F69567" stroke-width="2"/>
<path d="M966.812 1011.21C923.875 804.437 811.483 360.017 705.409 236.517C599.335 113.018 228.877 -4.73218 56.9079 -48.1696" stroke="#F99964" stroke-width="2"/>
<path d="M947.951 1027.44C905.014 820.668 792.622 376.247 686.548 252.748C580.473 129.248 210.016 11.4984 38.0466 -31.9391" stroke="#FB9E61" stroke-width="2"/>
<path d="M929.091 1043.67C886.154 836.899 773.761 392.478 667.687 268.979C561.613 145.479 191.156 27.7297 19.1863 -15.7077" stroke="#FDA25E" stroke-width="2"/>
</svg>
