<svg width="auto" height="auto" viewBox="0 0 291 1399" fill="none" xmlns="http://www.w3.org/2000/svg">
<path d="M-16.4609 1397.5C85.6924 1212.67 289.999 802.3 289.999 639.5C289.999 476.7 85.6924 146 -16.4609 1" stroke="#D24D9C" stroke-width="2"/>
<path d="M-41.3428 1397.52C60.8105 1212.69 265.117 802.324 265.117 639.524C265.117 476.724 60.8105 146.024 -41.3428 1.02393" stroke="#D45199" stroke-width="2"/>
<path d="M-66.2246 1397.55C35.9287 1212.71 240.235 802.348 240.235 639.548C240.235 476.748 35.9287 146.048 -66.2246 1.04785" stroke="#D65596" stroke-width="2"/>
<path d="M-91.1094 1397.57C11.0439 1212.74 215.35 802.371 215.35 639.571C215.35 476.771 11.0439 146.071 -91.1094 1.07129" stroke="#D85A93" stroke-width="2"/>
<path d="M-115.99 1397.6C-13.8369 1212.76 190.47 802.395 190.47 639.595C190.47 476.795 -13.8369 146.095 -115.99 1.09521" stroke="#DB5E90" stroke-width="2"/>
<path d="M-140.874 1397.62C-38.7207 1212.79 165.586 802.419 165.586 639.619C165.586 476.819 -38.7207 146.119 -140.874 1.11914" stroke="#DD628D" stroke-width="2"/>
<path d="M-165.757 1397.64C-63.6035 1212.81 140.703 802.443 140.703 639.643C140.703 476.843 -63.6035 146.143 -165.757 1.14307" stroke="#DF6689" stroke-width="2"/>
<path d="M-190.641 1397.67C-88.4873 1212.83 115.819 802.467 115.819 639.667C115.819 476.867 -88.4873 146.167 -190.641 1.1665" stroke="#E16B86" stroke-width="2"/>
<path d="M-215.522 1397.69C-113.369 1212.86 90.9374 802.49 90.9374 639.69C90.9374 476.89 -113.369 146.19 -215.522 1.19043" stroke="#E36F83" stroke-width="2"/>
<path d="M-240.405 1397.71C-138.252 1212.88 66.0546 802.514 66.0546 639.714C66.0546 476.914 -138.252 146.214 -240.405 1.21436" stroke="#E57380" stroke-width="2"/>
<path d="M-265.288 1397.74C-163.135 1212.9 41.1718 802.538 41.1718 639.738C41.1718 476.938 -163.135 146.238 -265.288 1.23828" stroke="#E7777D" stroke-width="2"/>
<path d="M-290.171 1397.76C-188.018 1212.93 16.289 802.562 16.289 639.762C16.289 476.962 -188.018 146.262 -290.171 1.26172" stroke="#EA7C7A" stroke-width="2"/>
</svg>
