<svg width="auto" height="auto" viewBox="0 0 393 310" fill="none" xmlns="http://www.w3.org/2000/svg">
<path d="M1 0.5C51 38.5 168.5 121 238.5 147C308.5 173 371 265.833 393.5 309" stroke="#FFA65B" stroke-width="2"/>
<path d="M103 -124C153 -86 270.5 -3.5 340.5 22.5C410.5 48.5 473 141.333 495.5 184.5" stroke="#D24D9C" stroke-width="2"/>
<path d="M10.2725 -10.8182C60.2725 27.1818 177.772 109.682 247.772 135.682C317.772 161.682 380.272 254.515 402.772 297.682" stroke="#FB9E61" stroke-width="2"/>
<path d="M19.5459 -22.1364C69.5459 15.8636 187.046 98.3636 257.046 124.364C327.046 150.364 389.546 243.197 412.046 286.364" stroke="#F79667" stroke-width="2"/>
<path d="M28.8184 -33.4546C78.8184 4.54541 196.318 87.0454 266.318 113.045C336.318 139.045 398.818 231.879 421.318 275.045" stroke="#F38E6D" stroke-width="2"/>
<path d="M38.0908 -44.7727C88.0908 -6.77271 205.591 75.7273 275.591 101.727C345.591 127.727 408.091 220.561 430.591 263.727" stroke="#EF8673" stroke-width="2"/>
<path d="M47.3633 -56.0909C97.3633 -18.0909 214.863 64.4091 284.863 90.4091C354.863 116.409 417.363 209.242 439.863 252.409" stroke="#EB7E79" stroke-width="2"/>
<path d="M56.6367 -67.4091C106.637 -29.4091 224.137 53.0909 294.137 79.0909C364.137 105.091 426.637 197.924 449.137 241.091" stroke="#E7767F" stroke-width="2"/>
<path d="M65.9092 -78.7273C115.909 -40.7273 233.409 41.7727 303.409 67.7727C373.409 93.7727 435.909 186.606 458.409 229.773" stroke="#E36E85" stroke-width="2"/>
<path d="M75.1816 -90.0454C125.182 -52.0454 242.682 30.4546 312.682 56.4546C382.682 82.4546 445.182 175.288 467.682 218.455" stroke="#DF658B" stroke-width="2"/>
<path d="M84.4541 -101.364C134.454 -63.3636 251.954 19.1364 321.954 45.1364C391.954 71.1364 454.454 163.97 476.954 207.136" stroke="#DA5D90" stroke-width="2"/>
<path d="M93.7275 -112.682C143.728 -74.6818 261.228 7.81824 331.228 33.8182C401.228 59.8182 463.728 152.652 486.228 195.818" stroke="#D65596" stroke-width="2"/>
</svg>
