<svg width="auto" height="auto" viewBox="0 0 393 203" fill="none" xmlns="http://www.w3.org/2000/svg">
<path d="M-4.88379 201.5C20.8773 178.833 96.3257 140.3 192.03 167.5C287.734 194.7 375.887 122.5 408 83" stroke="#FFA65B" stroke-width="2"/>
<path d="M-16 119.5C9.76113 96.8333 85.2095 58.2999 180.914 85.4999C276.618 112.7 364.771 40.5 396.884 1" stroke="#D24D9C" stroke-width="2"/>
<path d="M-5.89453 194.045C19.8666 171.379 95.315 132.845 191.019 160.045C286.724 187.245 374.876 115.045 406.989 75.5454" stroke="#FB9E61" stroke-width="2"/>
<path d="M-6.90527 186.591C18.8559 163.924 94.3042 125.391 190.009 152.591C285.713 179.791 373.865 107.591 405.979 68.0909" stroke="#F79667" stroke-width="2"/>
<path d="M-7.91504 179.136C17.8461 156.47 93.2944 117.936 188.999 145.136C284.703 172.336 372.856 100.136 404.969 60.6364" stroke="#F38E6D" stroke-width="2"/>
<path d="M-8.92578 171.682C16.8354 149.015 92.2837 110.482 187.988 137.682C283.692 164.882 371.845 92.6818 403.958 53.1818" stroke="#EF8673" stroke-width="2"/>
<path d="M-9.93652 164.227C15.8246 141.561 91.273 103.027 186.977 130.227C282.682 157.427 370.834 85.2273 402.947 45.7273" stroke="#EB7E79" stroke-width="2"/>
<path d="M-10.9473 156.773C14.8139 134.106 90.2622 95.5727 185.967 122.773C281.671 149.973 369.823 77.7727 401.937 38.2727" stroke="#E7767F" stroke-width="2"/>
<path d="M-11.957 149.318C13.8041 126.651 89.2525 88.1181 184.957 115.318C280.661 142.518 368.814 70.3182 400.927 30.8182" stroke="#E36E85" stroke-width="2"/>
<path d="M-12.9688 141.864C12.7924 119.197 88.2407 80.6636 183.945 107.864C279.649 135.064 367.802 62.8636 399.915 23.3636" stroke="#DF658B" stroke-width="2"/>
<path d="M-13.9795 134.409C11.7816 111.742 87.23 73.209 182.934 100.409C278.639 127.609 366.791 55.4091 398.904 15.9091" stroke="#DA5D90" stroke-width="2"/>
<path d="M-14.9893 126.954C10.7719 104.288 86.2202 65.7545 181.925 92.9545C277.629 120.154 365.781 47.9545 397.895 8.45454" stroke="#D65596" stroke-width="2"/>
</svg>
